# xmcd
#
# Track frame offsets: 
#        150
#        18618
#        35574
#        50766
#        72891
#        88058
#        105985
#        125330
#        141649
#        161191
#        170661
#
# Disc length: 2377 seconds
#
# Revision: 0
# Processed by: cddbd v1.5.2PL0 Copyright (c) Steve Scherf et al.
# Submitted via: ExactAudioCopy v0.95b4
#
DISCID=a109470b
DTITLE=Krieger - Krieger
DYEAR=2007
DGENRE=Metal
TTITLE0=Krieger
TTITLE1=Heimat
TTITLE2=Zurück nach Haus
TTITLE3=Mein Schloss
TTITLE4=Wenn Du mich küsst
TTITLE5=In Flammen
TTITLE6=Kein Schuss
TTITLE7=Mein Degen
TTITLE8=Einmal Sterben und zurück
TTITLE9=Das Meer und Ich
TTITLE10=Feldschlösschen
EXTD=
EXTT0=
EXTT1=
EXTT2=
EXTT3=
EXTT4=
EXTT5=
EXTT6=
EXTT7=
EXTT8=
EXTT9=
EXTT10=
PLAYORDER=
